<?xml version="1.0" encoding="utf-8"?>
<!-- Generator: Adobe Illustrator 23.0.0, SVG Export Plug-In . SVG Version: 6.00 Build 0)  -->
<svg version="1.1" id="Layer_1" xmlns="http://www.w3.org/2000/svg" xmlns:xlink="http://www.w3.org/1999/xlink" x="0px" y="0px"
	 viewBox="0 0 549 498.4" style="enable-background:new 0 0 549 498.4;" xml:space="preserve">
<style type="text/css">
	.st0{fill:#2575B3;}
	.st1{fill:#DD0B2B;}
	.st2{fill:#FFFFFF;}
	.st3{fill:#1D1D1B;}
	.st4{fill:#BBE1E4;}
</style>
<title>Asset 1bigtv_logo</title>
<g>
	<g id="Layer_1-2">
		<path class="st0" d="M22.7,391.5h30c4.4-0.1,8.9,0.1,13.3,0.6c2.7,0.3,5.4,1.2,7.8,2.5c2.3,1.2,4.2,3,5.8,5.1
			c1.5,2.1,2.3,4.6,2.3,7.1c0,2.9-1,5.6-2.8,7.8c-2,2.5-4.7,4.3-7.7,5.3c4.6,1.1,8.1,2.9,10.5,5.5c2.4,2.4,3.7,5.7,3.7,9.2
			c0,2.9-0.8,5.6-2.4,8.1c-1.6,2.6-3.8,4.8-6.5,6.3c-3.1,1.7-6.6,2.7-10.2,2.9c-2.5,0.2-8.6,0.4-18.3,0.4H22.7V391.5z M37.8,401.6
			v14h9.9c5.9,0,9.6-0.1,11-0.2c2.2-0.1,4.3-0.9,6.1-2.2c1.5-1.1,2.3-2.9,2.2-4.7c0.1-1.7-0.6-3.4-1.9-4.6c-1.6-1.3-3.6-2.1-5.7-2.1
			c-1.5-0.1-5.8-0.2-12.9-0.2L37.8,401.6z M37.8,425.7V442h14c3.5,0.1,6.9,0,10.4-0.4c2-0.2,3.9-1.1,5.5-2.4
			c1.4-1.3,2.2-3.2,2.1-5.2c0-1.7-0.5-3.3-1.6-4.6c-1.3-1.4-2.9-2.3-4.7-2.8c-2.1-0.6-6.5-0.9-13.4-0.9H37.8z"/>
		<path class="st0" d="M97.8,452.2v-60.7H113v60.7H97.8z"/>
		<path class="st0" d="M162.3,429.9v-10.2h32.6v24.2c-3.2,2.5-7.8,4.7-13.8,6.6c-5.9,1.9-12.1,2.8-18.3,2.8c-7,0.2-14-1.2-20.5-4
			c-5.5-2.3-10.1-6.3-13.1-11.4c-2.9-4.9-4.4-10.5-4.4-16.2c-0.1-6,1.6-11.9,4.9-16.9c3.5-5.1,8.6-9.1,14.4-11.3c4.8-2,10.8-3,18-3
			c9.3,0,16.6,1.6,21.8,4.8c5,2.8,8.6,7.6,10.1,13.1l-15,2.3c-1.1-3-3.2-5.5-6-7.1c-3.4-1.9-7.2-2.8-11-2.6
			c-6.6,0-11.9,1.7-15.8,5.1c-3.9,3.4-5.9,8.4-5.9,15.1c0,7.2,2,12.6,5.9,16.2c4,3.6,9.1,5.4,15.6,5.4c3.2,0,6.5-0.5,9.5-1.5
			c2.9-0.9,5.6-2.1,8.2-3.7v-7.7L162.3,429.9z"/>
		<path class="st0" d="M383.2,452.2v-60.7h31.9c8,0,13.8,0.5,17.5,1.6c3.4,1,6.5,3,8.7,5.8c2.2,2.7,3.3,6.1,3.3,9.6
			c0.1,4.3-1.7,8.5-5,11.3c-3.3,3-8.3,4.8-14.8,5.6c2.9,1.3,5.7,3,8.1,5.1c3.2,3,6.1,6.3,8.6,9.9l9.2,11.9h-18.1l-11-13.2
			c-2.5-3.2-5.1-6.1-8-8.9c-1.3-1.2-2.9-2-4.5-2.5c-2.5-0.5-5.1-0.8-7.6-0.7h-3.1v25.4h-15.2V452.2z M398.3,417.2h11.2
			c7.3,0,11.8-0.3,13.6-0.8c1.6-0.4,3.1-1.3,4.3-2.6c1-1.3,1.6-2.9,1.5-4.6c0.1-1.9-0.6-3.7-2-5c-1.6-1.4-3.6-2.2-5.7-2.4
			c-1.2-0.1-4.9-0.2-11-0.2h-11.8L398.3,417.2z"/>
		<path class="st0" d="M458.7,391.5h15.1v32.9c0,5.2,0.2,8.6,0.6,10.2c0.7,2.5,2.3,4.7,4.6,6c2.4,1.5,5.8,2.3,10,2.3
			c4.3,0,7.5-0.7,9.7-2.1c2-1.1,3.4-3,3.9-5.2c0.5-3.4,0.8-6.9,0.7-10.3v-33.6h15.1v31.9c0,7.3-0.4,12.4-1.2,15.5
			c-0.8,2.9-2.3,5.6-4.5,7.6c-2.5,2.3-5.6,4-8.8,5c-4.7,1.4-9.6,2-14.4,1.8c-7.2,0-12.6-0.7-16.3-2c-3.3-1.1-6.3-2.9-8.8-5.2
			c-2-1.8-3.4-4.2-4.2-6.7c-1-3.5-1.5-8.6-1.5-15.4L458.7,391.5z"/>
		<path class="st0" d="M356.8,451.7V440h14.4v11.6L356.8,451.7z"/>
		<path class="st1" d="M223.9,466.1V396h-28.4v-14.3h76.1V396h-28.4v70.1H223.9z"/>
		<path class="st1" d="M302.2,467.3l-34.7-85.6h21.3l24.6,63.3l23.8-63.3H358l-34.8,85.6H302.2z"/>
		<rect x="21" y="372.7" class="st0" width="500" height="5.4"/>
		<rect x="21" y="471.4" class="st0" width="500" height="5.4"/>
		<rect x="183" y="441.4" class="st0" width="11.8" height="14"/>
		<path class="st0" d="M336.4,219.3c0,32.3-26.2,58.6-58.6,58.6c-32.3,0-58.6-26.2-58.6-58.5s26.2-58.6,58.5-58.6l0,0h0.7v58.6
			L336.4,219.3L336.4,219.3z"/>
		<path class="st0" d="M388.9,176.9l-65.7-65.5c8.2-1,24.9,8.7,40.8,24.3C380.5,151.9,390.6,169.1,388.9,176.9z"/>
		<path class="st0" d="M370.9,309c-25,28.1-60.9,44.2-98.5,44.1c-72.6,0-131.4-58.4-131.4-130.4c0-41.9,20.3-81.2,54.4-105.6
			c-21.2,23.7-32.9,54.5-32.9,86.3c0,72,58.9,130.4,131.4,130.4C321.5,333.8,348.5,325.1,370.9,309z"/>
		<path class="st0" d="M404.9,223.6c0,3.5-0.1,6.9-0.4,10.3L262.1,94c4.1-0.4,8.2-0.6,12.3-0.6c8.6,0,17.2,0.8,25.6,2.5l102,100.2
			C403.9,205.2,404.9,214.4,404.9,223.6z"/>
		<path class="st0" d="M256.4,95.6c1-0.1,16.8,17.3,16.8,17.3s-106.2,8.4-102,124c0.1,2.3-5.1-9.8-5.6-29
			c-0.1-4.7,0.5-32.3,14.5-59.4s25.3-34.6,25.3-34.6C205.9,112.9,237.7,97.4,256.4,95.6z"/>
		<path class="st1" d="M404,239.9c0.1-1-17.3-16.8-17.3-16.8s-8.4,106.2-124,102c-2.3-0.1,9.8,5.1,29,5.6
			c4.7,0.1,32.3-0.5,59.4-14.5s34.6-25.3,34.6-25.3C386.6,290.4,402.1,258.6,404,239.9z"/>
	</g>
</g>
<g>
	<path class="st2" d="M306.7,90.3c5.4,6.7,1.5,14.6-5.6,17.5c-7.2,2.9-15.3,1.3-22.9,2.3c2.8-6.3,4.3-13.3,5.7-20.1
		c1.8-9.5,1.5-17.3-0.9-25.3c3.1-2.7,6.7-4.7,10.6-2.4c3.3,1.9,4.9,4.9,5.5,8.7c0.8,6-2.9,9.9-4.5,15.3c-0.3,1,1.1,1.6,1.5,0.6
		c0.5-1.1,0.9-2.1,1.4-3.1C300.8,85.6,304.3,87.4,306.7,90.3z"/>
	<path class="st2" d="M268.4,115.8c0.5,1.5,0.9,2.9,1.4,4.4c0.2,0.6,1.2,0.9,1.7,0.4c1.3-1.3,2.4-2.8,3.4-4.3
		c4.3,2,8.3,5.5,7.8,10.7c-0.5,5.1-6.5,8.6-11.2,8.4c-4.9-0.2-8.9-3.9-9.5-8.7C261.3,122,264.2,117.9,268.4,115.8z"/>
	<path class="st2" d="M247.3,80.9c0.1,0,0.1-0.1,0.2-0.1c4.8,4.8,9.3,9.9,12.9,15.7c2.9,4.8,4.9,9.9,6.7,15.1
		c-7.5,1.5-14.5,5.1-21.7,7.6c-8.9,3.1-18,5.5-27.3,7.2c-8.9,1.6-18.3,3-27.4,2.7c-5.5-0.2-11.1-1.1-15-5.3
		c-5.1-5.6-1.3-13.9,2.5-18.8c1.8,1.3,3.8,2.2,6,2.4c0.5,0.1,0.6-0.7,0.1-0.8c-5.3-1-10-4.9-10.9-10.5c-1.5-9,7.6-10.6,14-9.2
		c7,1.5,13.9,2.8,21.1,3C221.8,90,235.7,87.6,247.3,80.9z"/>
	<path class="st1" d="M282.4,87.5c-1.9,10.2-4.2,22.1-11.2,30.1c-4.8-15.2-11.5-27.3-23.3-38.5c-12.8-12.2-26.5-23.5-40.2-34.6
		c-0.2-0.1-0.4,0.1-0.2,0.3c12.8,11.5,26.1,22.5,38.4,34.5c0.2,0.2,0.3,0.3,0.5,0.5c-11.8,4.9-23.7,8-36.6,7.9
		c-5.3,0-10.7-0.5-15.9-1.4c-4.2-0.7-8.6-2.3-12.9-2c3.8-14,2.1-28.9,6.9-42.8c5.3-15.4,17.3-25.9,34.1-24.8
		c13.7,1,27.3,6.3,38.9,13.5c11.2,7,23.8,17,29.8,29.3c-2.8,0-5.7,1.6-8,4.2c-1.1-3.5-2.6-7.1-4.5-10.8c-0.4-0.8-1.6-0.2-1.3,0.6
		c2.3,5.4,4.9,10.8,6,16.6C284.3,75.9,283.5,81.7,282.4,87.5z"/>
	<path class="st3" d="M283,64.7c2.4,8,2.7,15.9,0.9,25.3c-1.3,6.8-2.8,13.8-5.7,20.1c7.5-1,15.7,0.6,22.9-2.3
		c7.1-2.9,11-10.8,5.6-17.5c-2.4-2.9-5.8-4.8-9.1-6.5c-0.5,1-1,2.1-1.4,3.1s-1.8,0.4-1.5-0.6c1.6-5.4,5.3-9.3,4.5-15.3
		c-0.5-3.9-2.1-6.8-5.5-8.7C289.7,60,286.2,62,283,64.7z M267,111.6c-1.8-5.2-3.8-10.3-6.7-15.1c-3.5-5.8-8-10.9-12.9-15.7
		c0,0-0.1,0.1-0.2,0.1c-11.6,6.8-25.5,9.1-38.8,8.8c-7.2-0.2-14.1-1.5-21.1-3c-6.3-1.3-15.4,0.2-14,9.2c0.9,5.6,5.6,9.5,10.9,10.5
		c0.5,0.1,0.4,0.8-0.1,0.8c-2.2-0.2-4.3-1.1-6-2.4c-3.8,4.9-7.7,13.3-2.5,18.8c3.9,4.3,9.5,5.1,15,5.3c9.1,0.4,18.5-1,27.4-2.7
		c9.3-1.7,18.4-4.1,27.3-7.2C252.5,116.6,259.4,113,267,111.6z M284.6,127.8c-0.8,5.6-7.3,9.6-12.6,9.6c-13.3,0-16-18.5-3.9-22.8
		c-0.2-0.5-0.3-1-0.5-1.6c-12.2,2.7-23.7,8.9-35.9,12.1c-11.8,3.1-24.1,5.3-36.3,5.7c-7,0.2-16.6,0.1-21.2-6.2
		c-4.9-6.7-1.9-15,3.2-20.5c-6.9-5.9-8.5-18.3,2.7-19.9c3.5-16.9,0.9-34.7,9.2-50.6c6.1-11.6,16.4-19.1,29.7-19.1
		c14.8,0.1,29.7,5.8,42.2,13.4c11.8,7.3,26,18.2,31.3,31.5c2.2,0.5,4.3,1.9,6,4.4c4.2,6.5,2.3,12.3-0.4,18.2
		c7.4,4,16.7,11.2,11.4,20.6c-6.2,10.9-21.6,7.9-31.9,8.6c-0.5,1.1-1.1,2.2-1.7,3.3C281.1,117.1,285.5,121.7,284.6,127.8z
		 M271.2,117.6c7.1-8,9.3-19.9,11.2-30.1c1.1-5.9,1.8-11.6,0.6-17.6c-1.2-5.8-3.7-11.2-6-16.6c-0.4-0.8,0.9-1.4,1.3-0.6
		c1.9,3.8,3.4,7.3,4.5,10.8c2.3-2.7,5.2-4.2,8-4.2C284.9,47.1,272.3,37.1,261,30c-11.6-7.3-25.1-12.6-38.9-13.5
		c-16.8-1.2-28.8,9.4-34.1,24.8c-4.8,13.9-3.1,28.8-6.9,42.8c4.3-0.3,8.7,1.2,12.9,2c5.2,0.9,10.6,1.4,15.9,1.4
		c12.9,0.1,24.8-2.9,36.6-7.9c-0.2-0.2-0.3-0.3-0.5-0.5c-12.4-12-25.6-23-38.4-34.5c-0.2-0.1,0-0.4,0.2-0.3
		c13.7,11.1,27.4,22.5,40.2,34.6C259.7,90.3,266.4,102.4,271.2,117.6z M274.9,116.3c-1,1.5-2.2,3-3.4,4.3c-0.5,0.5-1.5,0.3-1.7-0.4
		c-0.4-1.5-0.9-2.9-1.4-4.4c-4.1,2-7.1,6.1-6.4,10.9c0.7,4.8,4.7,8.5,9.5,8.7c4.7,0.2,10.7-3.4,11.2-8.4
		C283.1,121.8,279.1,118.3,274.9,116.3z"/>
	<path class="st4" d="M185.3,127.3c-7.8-3.7-9.1-11.3-4.3-17.8c1.5-2-1.3-4.6-3.2-3c-8.6,7-3.9,21.8,7.1,22.3
		C185.8,128.8,186.1,127.6,185.3,127.3z"/>
	<path class="st4" d="M248.5,82.3c-0.1-0.2-0.2-0.5-0.3-0.7c-1.3-1.7-3.6-0.2-4.1,1.4c0,0.2-0.1,0.4-0.1,0.5
		c-10.3,2.9-20.1,5.7-31,5.9c-6.1,0.1-12.2-0.4-18.2-1.5c-4.3-0.8-9-2.9-13.5-2.3c-6.4,0.8-9.1,7.5-7.3,13.3
		c2.2,6.9,9.9,9,16.2,10.3c1.2,0.2,1.5-1.5,0.5-2c-3.5-1.6-7.4-3.2-10-6.1c-4.7-5.4-1-11.1,6.1-9.5c6.9,1.6,13.8,3,21,3.3
		c13.6,0.6,29.4-1.1,41.6-7.6C251.7,86.1,251,82.1,248.5,82.3z"/>
	<path class="st4" d="M271.7,133.6c-2.1-1.7-4.4-2.5-5.4-5.3c-1-2.9,0.4-5.6,2.4-7.7c1.1-1.1,0.6-2.6-0.4-3.2
		c-0.4-0.5-1.2-0.7-1.9-0.2c-4.8,3.1-5.8,10.6-1.9,14.8c0.1,0.1,0.2,0.2,0.3,0.2c1.6,2.1,3.9,3.6,6.5,3.2
		C272.2,135.2,272.4,134.1,271.7,133.6z"/>
	<path class="st4" d="M297.5,65.1c-2.5-5.2-10.6-5-14.1-1.1c-0.4,0.5-0.3,1.2,0.1,1.7c0,0.1-0.1,0.3-0.1,0.4c-0.4,6.7,0.8,13.3,0,20
		c-0.9,7.3-3.4,14.1-5.2,21.1c-0.4,1.5,1.5,2.8,2.5,1.4c7.5-10.8,11-30.6,6.1-43.1c-0.1-0.1-0.1-0.2-0.2-0.3c3.2-1.3,6-0.5,9.1,1.4
		C296.7,67.2,298.1,66.3,297.5,65.1z"/>
	<path class="st4" d="M297.7,85c-1.6-0.1-2.3,2.2-0.7,2.8c6.3,2.3,10.9,7.9,8.6,14.7c-0.3,1,1,1.5,1.5,0.6
		C310.8,95.5,306.9,85.4,297.7,85z"/>
</g>
</svg>
